<svg xmlns="http://www.w3.org/2000/svg" width="16" height="16" fill="none"><path fill="url(#a)" d="M7.474.953v7.151H.32c0-.11.056-.22.168-.279l2.673-1.422c1.11-.59 2.02-1.5 2.61-2.61L7.196 1.12a.312.312 0 0 1 .279-.167Z"/><path fill="url(#b)" d="M14.626 8.104H7.474V.953c.11 0 .219.055.278.167l1.423 2.673c.59 1.11 1.5 2.02 2.61 2.61l2.674 1.422c.111.06.167.17.167.28Z"/><path fill="url(#c)" d="M7.474 15.256V8.104h7.152c0 .11-.056.22-.167.28l-2.674 1.421c-1.11.59-2.02 1.5-2.61 2.61l-1.423 2.673a.312.312 0 0 1-.278.168Z"/><path fill="url(#d)" d="M.321 8.104h7.155v7.154a.312.312 0 0 1-.28-.167l-1.422-2.675a6.316 6.316 0 0 0-2.61-2.61L.489 8.383a.312.312 0 0 1-.168-.279Z"/><path fill="url(#e)" d="m7.474 4.474-.355.666a6.316 6.316 0 0 1-2.61 2.61l-.666.354h3.63v-3.63Z"/><path fill="url(#f)" d="m11.104 8.104-.666-.354a6.316 6.316 0 0 1-2.61-2.61l-.354-.666v3.63h3.63Z"/><path fill="url(#g)" d="m7.474 11.735.354-.666c.59-1.111 1.5-2.02 2.61-2.61l.666-.355h-3.63v3.63Z"/><path fill="url(#h)" d="M3.843 8.104h3.63v3.63l-.354-.665a6.316 6.316 0 0 0-2.61-2.61l-.666-.355Z"/><path fill="url(#i)" d="M13.158.1v2.531h-2.531c0-.036.018-.073.055-.093l.874-.464c.444-.237.808-.6 1.044-1.044l.465-.874A.104.104 0 0 1 13.158.1Z"/><path fill="url(#j)" d="M15.69 2.631h-2.532V.101c.037 0 .073.018.093.055l.465.874c.236.444.6.807 1.044 1.044l.874.464c.037.02.055.057.055.093Z"/><path fill="url(#k)" d="M13.158 5.162v-2.53h2.531a.104.104 0 0 1-.055.092l-.874.465c-.444.236-.808.6-1.044 1.044l-.465.874a.104.104 0 0 1-.093.055Z"/><path fill="url(#l)" d="M10.627 2.631h2.532v2.532a.104.104 0 0 1-.093-.056l-.465-.874a2.526 2.526 0 0 0-1.044-1.044l-.875-.465a.104.104 0 0 1-.056-.093Z"/><path fill="url(#m)" d="m13.158 1.35-.143.268c-.197.37-.5.674-.87.87l-.268.143h1.28V1.35Z"/><path fill="url(#n)" d="m14.44 2.631-.27-.143c-.37-.196-.672-.5-.87-.87l-.142-.268v1.281h1.281Z"/><path fill="url(#o)" d="M13.158 3.913V2.63h1.281l-.268.143c-.37.197-.673.5-.87.87l-.143.269Z"/><path fill="url(#p)" d="M11.877 2.631h1.28v1.282l-.142-.269c-.197-.37-.5-.673-.87-.87l-.268-.143Z"/><defs><radialGradient id="a" cx="0" cy="0" r="1" gradientTransform="rotate(132.641 2.58 3.85) scale(4.81772 4.81777)" gradientUnits="userSpaceOnUse"><stop offset=".131" stop-color="#9BC7D8"/><stop offset=".651" stop-color="#CEE9E8"/></radialGradient><radialGradient id="b" cx="0" cy="0" r="1" gradientTransform="rotate(110.559 4.814 5.322) scale(5.78882 5.7894)" gradientUnits="userSpaceOnUse"><stop offset=".131" stop-color="#9BC7D8"/><stop offset=".651" stop-color="#fff"/></radialGradient><radialGradient id="c" cx="0" cy="0" r="1" gradientTransform="rotate(137.357 4.422 6.936) scale(8.07802 8.07793)" gradientUnits="userSpaceOnUse"><stop offset=".131" stop-color="#9BC7D8"/><stop offset=".651" stop-color="#fff"/></radialGradient><radialGradient id="d" cx="0" cy="0" r="1" gradientTransform="rotate(135.582 1.306 6.051) scale(3.64986 3.64985)" gradientUnits="userSpaceOnUse"><stop offset=".131" stop-color="#A8E6E9"/><stop offset=".651" stop-color="#DBF6F3"/></radialGradient><radialGradient id="i" cx="0" cy="0" r="1" gradientTransform="rotate(130.772 6.312 3.596) scale(1.93821 1.93823)" gradientUnits="userSpaceOnUse"><stop stop-color="#84CCD0"/><stop offset=".651" stop-color="#D2F4F1"/></radialGradient><radialGradient id="j" cx="0" cy="0" r="1" gradientTransform="matrix(-.98309 2.1889 -2.18912 -.98319 14.842 .442)" gradientUnits="userSpaceOnUse"><stop offset=".131" stop-color="#9BC7D8"/><stop offset=".651" stop-color="#fff"/></radialGradient><radialGradient id="k" cx="0" cy="0" r="1" gradientTransform="matrix(-2.10303 1.93675 -1.93672 -2.103 14.892 2.963)" gradientUnits="userSpaceOnUse"><stop stop-color="#77CDD1"/><stop offset=".651" stop-color="#fff"/></radialGradient><radialGradient id="l" cx="0" cy="0" r="1" gradientTransform="rotate(135.583 5.767 4.17) scale(1.29175)" gradientUnits="userSpaceOnUse"><stop offset=".131" stop-color="#A8E6E9"/><stop offset=".651" stop-color="#DBF6F3"/></radialGradient><linearGradient id="e" x1="6.592" x2="5.658" y1="4.474" y2="8.104" gradientUnits="userSpaceOnUse"><stop offset=".13" stop-color="#EFF6FB"/><stop offset=".736" stop-color="#9DD4DF"/></linearGradient><linearGradient id="f" x1="8.354" x2="8.904" y1="5.519" y2="7.279" gradientUnits="userSpaceOnUse"><stop stop-color="#CFDCF3"/><stop offset="1" stop-color="#82C5D3"/></linearGradient><linearGradient id="g" x1="7.474" x2="10.499" y1="9.349" y2="8.104" gradientUnits="userSpaceOnUse"><stop offset=".28" stop-color="#8FC4CF"/><stop offset="1" stop-color="#C8EAF1"/></linearGradient><linearGradient id="h" x1="5.273" x2="7.198" y1="10.964" y2="8.599" gradientUnits="userSpaceOnUse"><stop stop-color="#F1F9FB"/><stop offset="1" stop-color="#8CC8D4"/></linearGradient><linearGradient id="m" x1="12.847" x2="12.517" y1="1.35" y2="2.631" gradientUnits="userSpaceOnUse"><stop offset=".13" stop-color="#fff"/><stop offset=".736" stop-color="#DEF5EC"/></linearGradient><linearGradient id="n" x1="13.368" x2="13.789" y1="1.368" y2="2.632" gradientUnits="userSpaceOnUse"><stop stop-color="#CAF0E3"/><stop offset="1" stop-color="#F2FBF7"/></linearGradient><linearGradient id="o" x1="13.158" x2="14.226" y1="3.071" y2="2.631" gradientUnits="userSpaceOnUse"><stop offset=".28" stop-color="#D7F5E9"/><stop offset="1" stop-color="#fff"/></linearGradient><linearGradient id="p" x1="12.381" x2="13.316" y1="3.641" y2="2.631" gradientUnits="userSpaceOnUse"><stop offset=".221" stop-color="#fff"/><stop offset=".895" stop-color="#BEEFDA"/></linearGradient></defs></svg>