<svg width="24" height="24" viewBox="0 0 24 24" fill="none" xmlns="http://www.w3.org/2000/svg">
<path fill-rule="evenodd" clip-rule="evenodd" d="M17.1988 3H6.8012L1.60294 12L6.8012 21L17.1988 21L22.3971 12L17.1988 3ZM18.3059 1.9177C18.1566 1.65923 17.8807 1.5 17.5821 1.5H6.41787C6.11929 1.5 5.84339 1.65923 5.69409 1.9177L0.111969 11.5823C-0.0373232 11.8408 -0.0373227 12.1592 0.111969 12.4177L5.69409 22.0823C5.84339 22.3408 6.11929 22.5 6.41787 22.5L17.5821 22.5C17.8807 22.5 18.1566 22.3408 18.3059 22.0823L23.888 12.4177C24.0373 12.1592 24.0373 11.8408 23.888 11.5823L18.3059 1.9177Z" fill="#FF0055"/>
<path fill-rule="evenodd" clip-rule="evenodd" d="M15.9424 7.45708C15.5519 7.06655 14.9187 7.06655 14.5282 7.45708L12.0533 9.93198L9.5784 7.45709C9.18787 7.06656 8.55471 7.06656 8.16418 7.45709L7.45708 8.16419C7.06655 8.55472 7.06655 9.18788 7.45708 9.57841L9.93197 12.0533L7.45712 14.5281C7.0666 14.9187 7.0666 15.5518 7.45712 15.9424L8.16423 16.6495C8.55475 17.04 9.18792 17.04 9.57844 16.6495L12.0533 14.1746L14.5281 16.6495C14.9187 17.04 15.5518 17.04 15.9424 16.6495L16.6495 15.9424C17.04 15.5518 17.04 14.9187 16.6495 14.5282L14.1746 12.0533L16.6495 9.5784C17.04 9.18787 17.04 8.55471 16.6495 8.16418L15.9424 7.45708Z"/>
<path fill-rule="evenodd" clip-rule="evenodd" d="M15.9424 7.45708C15.5519 7.06655 14.9187 7.06655 14.5282 7.45708L12.0533 9.93198L9.5784 7.45709C9.18787 7.06656 8.55471 7.06656 8.16418 7.45709L7.45708 8.16419C7.06655 8.55472 7.06655 9.18788 7.45708 9.57841L9.93197 12.0533L7.45712 14.5281C7.0666 14.9187 7.0666 15.5518 7.45712 15.9424L8.16423 16.6495C8.55475 17.04 9.18792 17.04 9.57844 16.6495L12.0533 14.1746L14.5281 16.6495C14.9187 17.04 15.5518 17.04 15.9424 16.6495L16.6495 15.9424C17.04 15.5518 17.04 14.9187 16.6495 14.5282L14.1746 12.0533L16.6495 9.5784C17.04 9.18787 17.04 8.55471 16.6495 8.16418L15.9424 7.45708Z" fill="white"/>
</svg>
