<svg version="1.1" xmlns="http://www.w3.org/2000/svg" x="0" y="0" width="64" height="64" xml:space="preserve">
<path fill="#FFAE2C" d="M11.65 54.72c1.77 3.47 1.91 4.95 1.96 7 .08 3.05 21.76 3.05 21.76 0 0-1.89.61-4.14 2.71-7H11.65z"/>
<path fill="#DB942D" d="M37.19 54.72c-1.55 2.44-1.82 4.7-1.82 7 .5-2.33 1.49-4.48 3.44-7h-1.62zM12.43 54.72h-1.3c1.96 3.7 2.08 4.91 2.48 7-.06-2.1.28-3.67-1.18-7z"/>
<path fill="#FFC940" d="M51.25 30.87c-7.92.37-11.69 11.3-12.79-.86-.47-5.22-.48-12.39-.54-21.67-.03-4.84-6.78-4.14-6.9-.68-.24 6.6-.38 20.95-.38 20.95s-.57-23.53-.58-24.88c-.04-3.65-7.26-4.46-7.44.38-.25 6.59-.43 24.06-.43 24.06s-.27-16.85-.56-21.72c-.2-3.37-6.18-3.4-6.5.63-.31 3.86-.59 21.12-.59 21.12s-.24-10.54-.2-12.79c.09-4.01-5.41-3.42-5.95.2-.76 5.06-.78 10.64-1.18 15.2-1.56 17.9.5 29.18 16.48 27.67 21.16 2.61 15.7-13.04 32.82-22.94 2.75-1.58-.81-4.88-5.26-4.67z"/>
<path fill="#DB942D" d="M53.38 30.32c-7.19-.76-9.19 3.65-12.99 4.57-1.96.48-1.65-16.39-1.7-24.74l-.01-1.82c-.02-2.85-2.07-4.16-4.1-4.19h-.07c-1.41 0-2.86.61-3.65 1.71-.03-1.15-.04-1.92-.04-2.13-.03-2.38-2.34-3.7-4.5-3.73-2.18-.02-4.36 1.23-4.46 4.08-.01.22-.02.44-.02.68-.64-.92-1.78-1.5-3.17-1.51h-.05c-1.91 0-4.04 1.17-4.25 3.77-.09 1.1-.17 3.24-.25 5.75-.57-.53-1.3-.79-1.98-.85-1.93-.15-4.13 1.15-4.5 3.59-.49 3.28-.68 6.71-.85 10.03-.1 1.85-.19 3.59-.33 5.22-1.13 12.92-1.02 26.58 11.59 28C8.13 55.39 6.49 47.72 7.97 30.89c.14-1.65.24-3.41.34-5.27.18-3.29.36-6.68.84-9.89.23-1.56 1.65-2.43 2.86-2.33 1.03.08 1.6.81 1.57 2-.05 2.24.48 13.82.48 13.82l1.15-.25s.37-18.04.68-21.84c.13-1.67 1.46-2.41 2.72-2.41h.03c1.06.01 2.15.56 2.22 1.77.28 4.8.76 22.02.76 22.02h1.12s.38-17.88.63-24.38c.08-1.96 1.52-2.66 2.87-2.66h.05c1.46.02 2.98.87 2.99 2.26.02 1.33.82 25.08.82 25.08l1.12-.01s.31-14.61.55-21.13c.05-1.31 1.43-2.07 2.78-2.06.6.01 2.58.23 2.59 2.72l.01 1.82c.05 8.39-.99 25.71 2.56 26.35 3.5.63 5.53-5.48 13.38-4.71 2.6.25 4.35 2.5 2.65 3.29-12.12 5.62-9.25 16.66-24.35 23.46 14.65-2.92 14.78-17.83 25.02-22.1 3.35-1.39.94-5.7-3.03-6.12z"/>
<path fill="#DB942D" d="M32.18 29.31c-2.11-.39-3.2-.09-3.2-.09s1.4-.52 1.69-1.81c.57 1.28 1.51 1.9 1.51 1.9zM23.69 29.23c-1.41-.58-3.3 0-3.3 0s1.4-.98 1.82-2.1c.57 1.29 1.48 2.1 1.48 2.1zM14.52 27.76c-.12 1.5-1.47 2.24-1.47 2.24s1.21-.36 3.47-.76c0 .01-1.43-.33-2-1.48z"/>
<path opacity=".3" fill="#DB942D" d="M35.15 36.87C23.48 40.64 23.23 50.55 23.9 54.56c.15.86.44.55.49-.02.4-4.22 1.72-12.7 10.97-17.27.89-.44.74-.71-.21-.4z"/>
 <zoom style="80x80" value="|x1.25" />
 <zoom style="64x64" value="|x1" />
 <zoom style="48x48" value="|x0.75" />
 <zoom style="40x40" value="|x0.625" />
 <zoom style="32x32" value="|x0.5" />
 <zoom style="28x28" value="|x0.4375" />
 <zoom style="24x24" value="|x0.375" />
 <zoom style="22x22" value="|x0.34" />
 <zoom style="20x20" value="|x0.3125"/>
 <zoom style="16x16" value="|x0.25" />
 <zoom style="skin1" value="|:#FFFFAE2C|:#FFDB942D|:#FFC940|:#FFDB942D|:#FFDB942D|:#FFDB942D" />
 <zoom style="skin2" value="|:#FFDEB38A|:#FFCFA47C|:#FFFFD8B4|:#FFCFA47C|:#FFCFA47C|:#FFCFA47C"/>
 <zoom style="skin3" value="|:#FFC99B71|:#FFB08863|:#FFEBC199|:#FFB08863|:#FFB08863|:#FFB08863"/>
 <zoom style="skin4" value="|:#FF8C5F44|:#FF70513D|:#FFB88A6f|:#FF70513D|:#FF70513D|:#FF70513D"/>
 <zoom style="skin5" value="|:#FF69452D|:#FF543B28|:#FF916B50|:#FF543B28|:#FF543B28|:#FF543B28"/>
 <zoom style="skin6" value="|:#FF4A3728|:#FF241B13|:#FF735C48|:#FF241B13|:#FF241B13|:#FF241B13"/>
</svg>