<svg width="24" height="24" viewBox="0 0 24 24" fill="none" xmlns="http://www.w3.org/2000/svg">
<path fill-rule="evenodd" clip-rule="evenodd" d="M6.75 6.75C6.75 5.92157 7.42157 5.25 8.25 5.25C9.07843 5.25 9.75 5.92157 9.75 6.75C9.75 7.57843 9.07843 8.25 8.25 8.25C7.42157 8.25 6.75 7.57843 6.75 6.75ZM8.25 3.75C6.59315 3.75 5.25 5.09315 5.25 6.75C5.25 8.40685 6.59315 9.75 8.25 9.75C9.90685 9.75 11.25 8.40685 11.25 6.75C11.25 5.09315 9.90685 3.75 8.25 3.75ZM14.25 9.75C14.25 8.92157 14.9216 8.25 15.75 8.25C16.5784 8.25 17.25 8.92157 17.25 9.75C17.25 10.5784 16.5784 11.25 15.75 11.25C14.9216 11.25 14.25 10.5784 14.25 9.75ZM15.75 6.75C14.0931 6.75 12.75 8.09315 12.75 9.75C12.75 11.4069 14.0931 12.75 15.75 12.75C17.4069 12.75 18.75 11.4069 18.75 9.75C18.75 8.09315 17.4069 6.75 15.75 6.75ZM3 15.75C3 13.2647 5.01472 11.25 7.5 11.25H9C10.2587 11.25 11.3978 11.7677 12.2136 12.6C12.5036 12.8958 12.4989 13.3706 12.2031 13.6606C11.9073 13.9505 11.4324 13.9458 11.1425 13.65C10.5971 13.0937 9.83938 12.75 9 12.75H7.5C5.84315 12.75 4.5 14.0931 4.5 15.75V18C4.5 18.8284 5.17157 19.5 6 19.5H9C9.41421 19.5 9.75 19.8358 9.75 20.25C9.75 20.6642 9.41421 21 9 21H6C4.34315 21 3 19.6569 3 18V15.75ZM14.5312 14.25C12.3049 14.25 10.5 16.0549 10.5 18.2812C10.5 19.7828 11.7172 21 13.2188 21H18.2812C19.7828 21 21 19.7828 21 18.2812C21 16.0549 19.1951 14.25 16.9688 14.25H14.5312ZM12 18.2812C12 16.8833 13.1333 15.75 14.5312 15.75H16.9688C18.3667 15.75 19.5 16.8833 19.5 18.2812C19.5 18.9543 18.9543 19.5 18.2812 19.5H13.2188C12.5457 19.5 12 18.9543 12 18.2812Z" fill="white"/>
</svg>
