<svg width="25" height="24" viewBox="0 0 25 24" fill="none" xmlns="http://www.w3.org/2000/svg">
<path fill-rule="evenodd" clip-rule="evenodd" d="M23 12C23 17.799 18.299 22.5 12.5 22.5C6.70101 22.5 2 17.799 2 12C2 6.20101 6.70101 1.5 12.5 1.5C18.299 1.5 23 6.20101 23 12ZM24.5 12C24.5 18.6274 19.1274 24 12.5 24C5.87258 24 0.5 18.6274 0.5 12C0.5 5.37258 5.87258 0 12.5 0C19.1274 0 24.5 5.37258 24.5 12ZM14.7294 18.5765H9.94119C9.69805 18.5765 9.49413 18.498 9.32943 18.3412C9.16472 18.1843 9.08237 17.9882 9.08237 17.7529C9.08237 17.5176 9.16472 17.3216 9.32943 17.1647C9.49413 17.0078 9.69805 16.9294 9.94119 16.9294H11.4V11.5294H10.1412C9.89805 11.5294 9.69413 11.451 9.52943 11.2941C9.36472 11.1372 9.28237 10.9412 9.28237 10.7059C9.28237 10.4706 9.36472 10.2745 9.52943 10.1176C9.69413 9.96077 9.89805 9.88234 10.1412 9.88234H12.353C12.651 9.88234 12.8784 9.98038 13.0353 10.1765C13.1922 10.3647 13.2706 10.6196 13.2706 10.9412V16.9294H14.7294C14.9726 16.9294 15.1765 17.0078 15.3412 17.1647C15.5059 17.3216 15.5883 17.5176 15.5883 17.7529C15.5883 17.9882 15.5059 18.1843 15.3412 18.3412C15.1765 18.498 14.9726 18.5765 14.7294 18.5765ZM12.9765 7.47058C12.6863 7.76861 12.3255 7.91763 11.8941 7.91763C11.4706 7.91763 11.1098 7.76861 10.8118 7.47058C10.5137 7.17254 10.3647 6.81175 10.3647 6.38822C10.3647 5.95685 10.5137 5.59214 10.8118 5.29411C11.1098 4.99607 11.4706 4.84705 11.8941 4.84705C12.3255 4.84705 12.6863 4.99607 12.9765 5.29411C13.2745 5.59214 13.4235 5.95685 13.4235 6.38822C13.4235 6.81175 13.2745 7.17254 12.9765 7.47058Z" fill="white"/>
</svg>
