<svg width="24" height="24" viewBox="0 0 24 24" fill="none" xmlns="http://www.w3.org/2000/svg">
<path d="M6 15C7.6542 15 9 16.3455 9 18C9 19.6545 7.6542 21 6 21C4.3458 21 3 19.6545 3 18C3 16.3455 4.3458 15 6 15ZM6 13.5C3.5148 13.5 1.5 15.5149 1.5 18C1.5 20.4851 3.5148 22.5 6 22.5C8.48535 22.5 10.5 20.4851 10.5 18C10.5 15.5149 8.4852 13.5 6 13.5ZM18 3C19.6542 3 21 4.3455 21 6C21 7.6545 19.6542 9 18 9C16.3458 9 15 7.6545 15 6C15 4.3455 16.346 3 18 3ZM18 1.5C15.5148 1.5 13.5 3.51495 13.5 6C13.5 8.48505 15.5148 10.5 18 10.5C20.4853 10.5 22.5 8.48505 22.5 6C22.5 3.51495 20.4853 1.5 18 1.5ZM2.25027 11.25C2.66487 11.25 3.00027 10.9131 3.00027 10.5V7.5C3.00027 5.01855 5.01882 3 7.50027 3H10.5C10.9146 3 11.25 2.6631 11.25 2.25C11.25 1.8369 10.9146 1.5 10.5 1.5H7.50027C4.19112 1.5 1.50027 4.19235 1.50027 7.5V10.5C1.50027 10.9131 1.83567 11.25 2.25027 11.25ZM13.5 22.5H16.5003C19.8094 22.5 22.5003 19.8076 22.5003 16.5L22.5 13.5C22.5 13.0869 22.1646 12.75 21.75 12.75C21.3354 12.75 21 13.0869 21 13.5L21.0003 16.5C21.0003 18.9814 18.9817 21 16.5003 21H13.5C13.0854 21 12.75 21.3369 12.75 21.75C12.75 22.1631 13.0854 22.5 13.5 22.5Z" fill="white"/>
</svg>
