<svg width="24" height="24" viewBox="0 0 24 24" fill="none" xmlns="http://www.w3.org/2000/svg">
<path d="M9.20884 2.70109C10.4877 2.45687 12.0793 2.24999 13.797 2.25C15.493 2.25001 17.0922 2.43281 18.3957 2.65116C19.9283 2.90789 21 4.29374 21 5.95023V9.75C21 10.8264 20.5465 11.7969 19.8201 12.4808C19.6282 12.6615 19.5 12.9053 19.5 13.1689C19.5 13.7845 20.1409 14.1759 20.6134 13.7813C21.7664 12.8182 22.5 11.3698 22.5 9.75V5.95023C22.5 3.66586 20.9976 1.56612 18.6435 1.17177C17.2812 0.943579 15.5966 0.750006 13.797 0.75C11.9627 0.749994 10.2745 0.970479 8.92748 1.22771C7.45177 1.50952 6.34397 2.47293 5.7472 3.71569C5.50867 4.21241 5.94319 4.71018 6.49114 4.652C6.78832 4.62045 7.05485 4.42274 7.20292 4.16315C7.63173 3.41137 8.33863 2.86727 9.20884 2.70109Z" fill="white"/>
<path d="M5.625 14.25C6.24632 14.25 6.75 13.7463 6.75 13.125C6.75 12.5037 6.24632 12 5.625 12C5.00368 12 4.5 12.5037 4.5 13.125C4.5 13.7463 5.00368 14.25 5.625 14.25Z" fill="white"/>
<path d="M9.375 14.25C9.99632 14.25 10.5 13.7463 10.5 13.125C10.5 12.5037 9.99632 12 9.375 12C8.75368 12 8.25 12.5037 8.25 13.125C8.25 13.7463 8.75368 14.25 9.375 14.25Z" fill="white"/>
<path d="M14.25 13.125C14.25 13.7463 13.7463 14.25 13.125 14.25C12.5037 14.25 12 13.7463 12 13.125C12 12.5037 12.5037 12 13.125 12C13.7463 12 14.25 12.5037 14.25 13.125Z" fill="white"/>
<path fill-rule="evenodd" clip-rule="evenodd" d="M4.4275 6.47771C5.7745 6.22048 7.46276 5.99999 9.29701 6C11.0966 6.00001 12.7812 6.19358 14.1435 6.42177C16.4976 6.81612 18 8.91586 18 11.2002V15C18 17.8995 15.6495 20.25 12.75 20.25H12.0267C10.317 22.4851 7.60183 22.9324 6.35494 22.9969C5.98316 23.0161 5.60256 22.7788 5.51294 22.3575C5.4277 21.9567 5.65149 21.5999 5.96668 21.4495C6.23293 21.3224 6.59601 21.0967 6.78849 20.5193C6.8142 20.4422 6.82934 20.3501 6.83319 20.25H6C3.1005 20.25 0.75 17.8995 0.75 15V11.1714C0.75 8.96929 2.15096 6.91245 4.4275 6.47771ZM9.29701 7.5C7.57927 7.49999 5.98769 7.70687 4.70886 7.95109C3.24992 8.22969 2.25 9.57056 2.25 11.1714V15C2.25 17.0711 3.92893 18.75 6 18.75H8.02007L8.18758 19.2701C8.35119 19.7781 8.40305 20.4191 8.21151 20.9937C8.19345 21.0479 8.17446 21.1005 8.15461 21.1517C9.17005 20.8227 10.2679 20.2073 11.0175 19.0837L11.2402 18.75H12.75C14.8211 18.75 16.5 17.0711 16.5 15V11.2002C16.5 9.54374 15.4283 8.15789 13.8957 7.90116C12.5922 7.68281 10.9931 7.50001 9.29701 7.5Z" fill="white"/>
</svg>